<svg width="13" height="21" viewBox="0 0 13 21" fill="none" xmlns="http://www.w3.org/2000/svg">
<path d="M5.88158 20.7482C6.05172 20.912 6.28077 21.0001 6.50327 21.0001C6.72577 21.0001 6.95482 20.9183 7.12497 20.7482L12.7399 15.3455C13.0867 15.0118 13.0867 14.4766 12.7399 14.1429C12.393 13.8091 11.8368 13.8091 11.4899 14.1429L7.38674 18.0973V0.850197C7.38674 0.377933 6.99409 0.00012207 6.50327 0.00012207C6.01246 0.00012207 5.61981 0.377933 5.61981 0.850197V18.0973L1.51007 14.1429C1.16323 13.8091 0.606972 13.8091 0.260131 14.1429C-0.0867103 14.4766 -0.0867103 15.0118 0.260131 15.3455L5.88158 20.7482Z" fill="black"/>
</svg>
